<?xml version="1.0" encoding="UTF-8"?>
<svg xmlns="http://www.w3.org/2000/svg" id="Layer_1" data-name="Layer 1" viewBox="0 0 512 512">
  <defs>
    <style>.cls-1{fill:#00312c;}</style>
  </defs>
  <path class="cls-1" d="M493.64,131.86a62.33,62.33,0,0,0-43.86-44.13C411.1,77.3,256,77.3,256,77.3s-155.1,0-193.78,10.43a62.33,62.33,0,0,0-43.86,44.13C8,170.8,8,252,8,252s0,81.23,10.36,120.16c5.71,21.48,22.52,37.69,43.86,43.43C100.9,426.05,256,426.05,256,426.05s155.1,0,193.78-10.44c21.34-5.74,38.15-21.95,43.86-43.43C504,333.25,504,252,504,252S504,170.8,493.64,131.86ZM205.27,325.77V178.27L334.91,252,205.27,325.77Z"></path>
</svg>
