<svg xmlns="http://www.w3.org/2000/svg" viewBox="0 0 64 64"><defs><style>.cls-1{fill:#000842;}.cls-2{fill:#f6ae2d;}.cls-3{fill:#fff;}.cls-4{fill:#000882;}</style></defs><g id="Ebene_1" data-name="Ebene 1"><rect class="cls-1" width="64" height="64"/></g><g id="sync_crop_areas"><path class="cls-2" d="M35.77,7.87c6.28-.06,10,3.71,10.1,10.15l.1,2.56L48.25,18A1.67,1.67,0,0,1,50.7,18l.78.77a1.79,1.79,0,0,1,0,2.48L45,28.07a1.67,1.67,0,0,1-2.41,0l-6.67-6.7a1.77,1.77,0,0,1,0-2.47l.76-.8a1.68,1.68,0,0,1,2.46,0l2.33,2.49-.1-2.57c0-3.86-1.72-5.66-5.49-5.52l-4.68,0L31,7.87Z"/><path class="cls-2" d="M24.37,55.49V34c0-1.41.93-2.56,2.93-2.56H53.16c2,0,3.64,1.15,3.64,2.56V55.49c0,1.41-1.62,2.56-3.64,2.56H27.3C25.3,58.05,24.37,56.9,24.37,55.49Z"/><path class="cls-3" d="M14.29,13.42A3.41,3.41,0,1,0,17.7,10,3.41,3.41,0,0,0,14.29,13.42ZM24.67,26.33H10.73A2.46,2.46,0,0,1,8.17,24V9.06a2.45,2.45,0,0,1,2.56-2.33H24.67a2.45,2.45,0,0,1,2.56,2.33V24A2.46,2.46,0,0,1,24.67,26.33ZM12.92,23.65h9.56a1.11,1.11,0,0,0,1.19-1v-1a3.35,3.35,0,0,0-3.58-3.07h-.27a5.56,5.56,0,0,1-4.24,0h-.27a3.36,3.36,0,0,0-3.58,3.07v1A1.11,1.11,0,0,0,12.92,23.65Z"/><path class="cls-4" d="M23.67,21.61v1a1.11,1.11,0,0,1-1.19,1H12.92a1.11,1.11,0,0,1-1.19-1v-1a3.36,3.36,0,0,1,3.58-3.07h.27a5.56,5.56,0,0,0,4.24,0h.27A3.35,3.35,0,0,1,23.67,21.61Z"/><circle class="cls-4" cx="17.7" cy="13.42" r="3.41"/><path class="cls-3" d="M45.2,46.79a5.59,5.59,0,0,1-4.25,0h-.26a3.36,3.36,0,0,0-3.59,3.07v1a1.13,1.13,0,0,0,1.2,1h9.55a1.12,1.12,0,0,0,1.19-1v-1a3.35,3.35,0,0,0-3.58-3.07ZM50,54.58H36.11a2.45,2.45,0,0,1-2.56-2.33V37.31A2.45,2.45,0,0,1,36.11,35H50a2.45,2.45,0,0,1,2.56,2.33V52.25A2.46,2.46,0,0,1,50,54.58ZM39.66,41.67a3.42,3.42,0,1,0,3.41-3.41A3.41,3.41,0,0,0,39.66,41.67Z"/><path class="cls-4" d="M49,49.86v1a1.12,1.12,0,0,1-1.19,1H38.3a1.13,1.13,0,0,1-1.2-1v-1a3.36,3.36,0,0,1,3.59-3.07H41a5.59,5.59,0,0,0,4.25,0h.26A3.35,3.35,0,0,1,49,49.86Z"/><path class="cls-4" d="M39.66,41.67a3.42,3.42,0,1,1,3.41,3.41A3.41,3.41,0,0,1,39.66,41.67Z"/></g></svg>
